<?xml version="1.0" standalone="no"?>
<!DOCTYPE svg PUBLIC "-//W3C//DTD SVG 20010904//EN"
 "http://www.w3.org/TR/2001/REC-SVG-20010904/DTD/svg10.dtd">
<svg version="1.0" xmlns="http://www.w3.org/2000/svg"
 width="536.000000pt" height="186.000000pt" viewBox="0 0 536.000000 186.000000"
 preserveAspectRatio="xMidYMid meet">

<g transform="translate(0.000000,186.000000) scale(0.100000,-0.100000)"
fill="#000000" stroke="none">
<path d="M2613 1846 c-53 -17 -98 -49 -119 -85 -16 -26 -22 -29 -78 -29 -143
0 -230 -85 -230 -222 0 -94 39 -161 117 -201 l37 -19 0 -175 0 -175 345 0 345
0 0 173 1 172 44 27 c66 40 99 96 103 179 4 59 1 74 -24 118 -45 84 -115 124
-213 123 -57 -1 -60 1 -90 39 -57 70 -155 102 -238 75z m136 -81 c69 -35 104
-114 82 -184 -10 -33 -9 -38 12 -53 12 -10 27 -18 34 -18 16 0 33 55 33 106 0
39 3 44 26 50 37 10 98 -12 133 -47 86 -86 45 -229 -75 -261 l-44 -12 0 -98 0
-98 -272 2 -273 3 -3 97 -3 97 -30 6 c-63 14 -119 84 -119 150 0 81 57 148
137 161 49 8 124 -23 150 -62 14 -22 16 -23 44 -8 16 8 29 19 29 24 0 5 -15
25 -34 44 -31 33 -32 37 -18 57 38 54 130 76 191 44z m201 -725 l0 -40 -275 0
-275 0 0 40 0 40 275 0 275 0 0 -40z"/>
<path d="M2530 1310 l0 -70 35 0 35 0 0 70 0 70 -35 0 -35 0 0 -70z"/>
<path d="M2760 1310 l0 -70 35 0 35 0 0 70 0 70 -35 0 -35 0 0 -70z"/>
<path d="M2634 730 c-25 -10 -34 -37 -23 -68 6 -17 16 -22 42 -22 38 0 57 15
57 46 0 34 -39 57 -76 44z"/>
<path d="M4130 480 l0 -260 40 0 40 0 0 260 0 260 -40 0 -40 0 0 -260z"/>
<path d="M60 470 l0 -250 155 0 155 0 0 35 0 35 -115 0 -115 0 0 215 0 215
-40 0 -40 0 0 -250z"/>
<path d="M2348 623 c-3 -46 -4 -48 -35 -51 -30 -3 -33 -6 -33 -38 0 -31 3 -34
29 -34 l28 0 5 -104 c3 -74 9 -112 21 -130 18 -26 70 -46 125 -46 31 0 32 2
32 40 0 40 0 40 -39 40 -48 0 -51 7 -51 116 l0 84 50 0 50 0 0 35 0 35 -50 0
-50 0 0 50 0 50 -39 0 -40 0 -3 -47z"/>
<path d="M2844 623 c-8 -42 -12 -48 -36 -51 -25 -3 -28 -8 -28 -38 0 -31 2
-34 30 -34 l30 0 0 -94 c0 -52 4 -106 10 -120 13 -36 50 -56 114 -63 l56 -6 0
41 0 41 -42 3 -43 3 -3 98 -3 97 46 0 c45 0 45 0 45 35 0 35 0 35 -45 35 l-45
0 0 50 0 50 -38 0 c-38 0 -39 -1 -48 -47z"/>
<path d="M4764 623 c-8 -42 -12 -48 -37 -51 -24 -3 -27 -8 -27 -38 0 -31 2
-34 30 -34 l30 0 0 -104 c0 -89 3 -107 20 -129 22 -28 74 -47 128 -47 31 0 32
2 32 40 l0 40 -40 0 c-51 0 -60 20 -60 126 l0 74 50 0 50 0 0 34 c0 34 -1 35
-47 38 l-48 3 -3 48 c-3 46 -4 47 -36 47 -32 0 -34 -2 -42 -47z"/>
<path d="M530 569 c-113 -47 -143 -216 -54 -304 82 -82 251 -54 287 48 5 14 0
17 -37 17 -28 0 -48 -6 -57 -16 -46 -55 -159 -21 -159 48 0 16 12 18 136 18
l137 0 -5 51 c-5 53 -26 89 -71 123 -31 23 -136 32 -177 15z m137 -81 c13 -12
23 -30 23 -40 0 -16 -10 -18 -90 -18 -49 0 -90 4 -90 9 0 5 12 23 26 40 21 25
33 31 67 31 28 0 48 -7 64 -22z"/>
<path d="M913 560 c-38 -22 -53 -48 -53 -87 0 -42 32 -70 98 -88 104 -28 132
-54 97 -89 -24 -24 -69 -20 -103 9 -20 17 -42 25 -66 25 -46 0 -47 -18 -3 -65
50 -54 151 -66 226 -26 51 28 62 127 16 157 -12 8 -53 23 -90 33 -37 11 -75
26 -84 36 -15 15 -14 18 8 36 30 24 52 24 84 -1 29 -23 97 -28 97 -7 0 21 -29
56 -60 72 -42 22 -128 19 -167 -5z"/>
<path d="M1538 555 c-35 -23 -36 -24 -41 -5 -4 15 -14 20 -41 20 l-36 0 0
-255 0 -255 40 0 40 0 0 107 0 106 24 -22 c62 -59 191 -41 240 34 41 62 40
168 -2 224 -54 74 -153 94 -224 46z m140 -79 c16 -15 26 -39 29 -70 5 -42 3
-48 -30 -81 -38 -38 -74 -45 -122 -23 -76 34 -70 165 9 199 33 14 87 2 114
-25z"/>
<path d="M1980 569 c-80 -32 -123 -129 -99 -224 37 -148 246 -178 322 -46 l19
31 -45 0 c-29 0 -49 -6 -58 -16 -46 -55 -159 -21 -159 48 0 16 12 18 136 18
l137 0 -5 50 c-6 59 -45 115 -94 136 -38 16 -117 17 -154 3z m137 -81 c13 -12
23 -30 23 -40 0 -16 -10 -18 -90 -18 -49 0 -90 4 -90 9 0 5 12 23 26 40 21 25
33 31 67 31 28 0 48 -7 64 -22z"/>
<path d="M3149 557 c-23 -15 -37 -35 -43 -60 -14 -54 13 -87 90 -110 107 -34
114 -38 114 -63 0 -47 -75 -60 -116 -19 -28 28 -104 37 -104 11 0 -21 38 -65
72 -82 42 -22 134 -22 176 0 64 33 79 128 26 163 -14 9 -55 24 -92 34 -36 11
-73 26 -82 35 -13 14 -13 17 9 35 30 25 66 24 91 -1 23 -23 90 -28 90 -7 0 21
-29 56 -60 72 -45 23 -130 19 -171 -8z"/>
<path d="M3782 555 c-36 -30 -42 -31 -42 -5 0 17 -7 20 -40 20 l-40 0 0 -255
0 -255 40 0 40 0 0 107 0 106 23 -21 c45 -42 144 -46 203 -7 82 53 96 194 28
275 -36 43 -75 60 -133 60 -38 0 -56 -6 -79 -25z m141 -85 c45 -50 32 -136
-24 -166 -99 -51 -199 59 -139 154 38 61 113 67 163 12z"/>
<path d="M4395 566 c-35 -16 -70 -52 -80 -83 -6 -21 -3 -23 35 -23 33 0 46 5
62 25 38 48 138 23 138 -35 0 -18 -7 -20 -63 -20 -34 0 -77 -4 -96 -10 -72
-20 -108 -88 -77 -147 33 -64 161 -78 211 -23 24 27 35 25 35 -5 0 -22 4 -25
35 -25 l35 0 0 139 c0 127 -2 141 -22 166 -12 15 -36 34 -54 41 -42 18 -120
17 -159 0z m148 -192 c8 -8 -9 -42 -36 -71 -26 -29 -77 -31 -101 -4 -22 24
-13 59 17 71 26 10 111 13 120 4z"/>
<path d="M5069 557 c-23 -15 -37 -35 -43 -60 -14 -54 13 -87 90 -110 82 -25
108 -40 113 -62 8 -46 -74 -61 -115 -20 -18 18 -36 25 -64 25 -46 0 -51 -14
-19 -54 31 -39 75 -58 138 -59 72 0 118 23 137 70 31 74 -6 121 -113 143 -29
6 -63 20 -75 31 l-23 19 24 20 c13 11 33 20 45 20 12 0 32 -9 44 -20 24 -23
92 -28 92 -7 0 21 -29 56 -60 72 -45 23 -130 19 -171 -8z"/>
<path d="M2620 395 l0 -175 40 0 40 0 0 175 0 175 -40 0 -40 0 0 -175z"/>
</g>
</svg>
